<?xml version="1.0" standalone="no"?>
<!DOCTYPE svg PUBLIC "-//W3C//DTD SVG 20010904//EN"
 "http://www.w3.org/TR/2001/REC-SVG-20010904/DTD/svg10.dtd">
<svg version="1.0" xmlns="http://www.w3.org/2000/svg"
 width="191.000000pt" height="191.000000pt" viewBox="0 0 191.000000 191.000000"
 preserveAspectRatio="xMidYMid meet">
<metadata>
Created by potrace 1.11, written by Peter Selinger 2001-2013
</metadata>
<g transform="translate(0.000000,191.000000) scale(0.100000,-0.100000)"
fill="#000000" stroke="none">
<path d="M1075 1447 c-67 -56 -64 -42 -50 -207 4 -52 8 -112 8 -133 0 -21 3
-39 6 -41 3 -2 36 -7 73 -10 61 -7 67 -6 64 11 -2 10 -7 65 -11 123 -3 58 -8
125 -10 150 -3 25 -5 66 -6 91 -1 26 -4 51 -8 57 -3 5 -33 -13 -66 -41z"/>
<path d="M924 1328 l-62 -50 5 -61 c2 -34 6 -78 8 -97 1 -19 3 -41 4 -48 1
-16 128 -15 134 2 2 6 3 22 2 36 -1 14 -6 68 -10 120 -11 138 -11 139 -16 144
-2 2 -32 -19 -65 -46z"/>
<path d="M782 1207 l-63 -52 3 -60 c3 -54 5 -60 23 -56 11 2 40 6 65 10 l45 6
0 55 c0 30 -2 76 -5 102 l-5 46 -63 -51z"/>
<path d="M663 1114 c-27 -21 -33 -32 -33 -64 0 -47 6 -51 47 -34 32 13 33 16
31 69 -1 30 -5 55 -8 55 -3 0 -20 -12 -37 -26z"/>
<path d="M791 1024 c-119 -25 -253 -79 -311 -125 -19 -14 -8 -12 46 11 140 58
245 80 409 86 247 8 392 -57 389 -173 -1 -48 7 -48 30 1 26 54 21 84 -22 126
-61 61 -144 83 -327 86 -96 1 -173 -3 -214 -12z"/>
<path d="M1467 850 c-59 -4 -72 -9 -92 -33 -63 -73 -30 -234 49 -238 132 -7
150 -4 144 27 -2 15 -13 18 -66 18 -68 1 -90 16 -94 60 0 12 -2 28 -3 36 -3
30 18 70 38 75 12 3 45 7 72 8 42 2 50 6 53 23 4 27 -13 31 -101 24z"/>
<path d="M1633 852 c-18 -2 -33 -6 -34 -10 -7 -44 -2 -262 6 -265 9 -2 90 -1
157 2 60 3 98 83 84 177 -7 44 -53 94 -89 95 -12 0 -38 1 -57 2 -19 1 -50 1
-67 -1z m105 -51 c29 -1 51 -50 47 -105 -4 -52 -23 -68 -82 -70 l-48 -1 -1 85
c0 47 3 88 9 91 5 3 18 5 30 4 12 -1 32 -3 45 -4z"/>
<path d="M74 718 c0 -73 4 -136 9 -139 5 -3 18 -4 30 -2 21 4 22 9 19 101 l-2
97 18 -46 c11 -25 25 -67 33 -94 10 -34 21 -50 38 -57 33 -12 41 -2 78 105
l31 92 1 -100 1 -101 28 2 27 1 1 136 1 137 -43 0 -43 0 -32 -100 c-18 -54
-35 -97 -39 -94 -3 3 -19 47 -36 97 l-32 92 -44 3 -44 3 0 -133z"/>
<path d="M414 715 c0 -74 2 -135 5 -136 3 0 14 -2 23 -4 10 -2 20 0 23 4 4 7
9 192 6 249 -1 17 -7 22 -28 22 l-28 0 -1 -135z"/>
<path d="M500 712 l0 -139 28 2 27 1 2 95 c1 51 2 96 3 99 0 3 23 -38 51 -90
28 -52 52 -96 54 -98 2 -2 18 -4 36 -5 l34 -2 3 138 3 137 -28 0 -28 0 0 -80
c0 -45 -2 -87 -5 -95 -3 -9 -26 25 -55 80 -50 94 -50 95 -87 95 l-38 0 0 -138z"/>
<path d="M762 828 c3 -20 9 -23 46 -23 31 1 42 -3 43 -15 0 -8 1 -60 2 -115 2
-105 1 -102 47 -96 6 0 10 45 10 110 0 118 0 119 58 116 27 -2 32 1 32 21 0
24 -1 24 -121 24 -119 0 -120 0 -117 -22z"/>
<path d="M1042 827 c-30 -32 -29 -81 3 -112 21 -21 33 -25 89 -25 53 0 67 -3
75 -18 17 -32 -3 -46 -71 -48 -35 -1 -73 -3 -85 -3 -16 -1 -23 -7 -23 -20 0
-25 10 -27 119 -26 88 2 96 4 117 28 17 20 21 35 17 59 -8 55 -34 72 -116 78
-65 5 -72 7 -75 28 -4 29 12 35 104 36 70 1 74 2 74 23 0 22 -3 23 -103 23
-95 0 -105 -2 -125 -23z"/>
<path d="M98 503 c-10 -2 -21 -16 -25 -30 -8 -36 27 -65 75 -61 52 4 54 28 3
28 -40 0 -61 14 -45 30 8 7 39 15 77 19 4 1 7 6 7 11 0 10 -59 12 -92 3z"/>
<path d="M278 499 c-19 -10 -23 -45 -10 -67 13 -20 79 -27 108 -12 28 15 32
51 8 74 -17 18 -80 21 -106 5z m90 -24 c13 -13 -11 -35 -37 -35 -32 0 -46 13
-38 34 5 13 63 13 75 1z"/>
<path d="M470 460 c0 -38 4 -50 15 -50 8 0 14 3 14 8 -1 4 -1 15 0 25 1 17 4
16 32 -7 31 -26 48 -32 50 -18 7 52 2 87 -11 87 -10 0 -14 -8 -13 -22 3 -30
-8 -29 -37 2 -37 39 -50 32 -50 -25z"/>
<path d="M660 495 c-19 -23 4 -43 53 -48 l42 -4 -41 -1 c-23 -1 -47 -9 -54
-17 -11 -13 -5 -15 48 -15 52 0 62 3 67 20 10 31 -2 40 -52 40 -54 0 -53 9 1
14 20 1 42 8 48 14 9 9 -1 12 -44 12 -37 0 -60 -5 -68 -15z"/>
<path d="M850 471 c0 -45 18 -61 68 -61 36 0 59 26 58 65 -1 40 -31 42 -31 2
-1 -54 -62 -58 -67 -4 -5 48 -28 47 -28 -2z"/>
<path d="M1048 488 c-2 -13 -1 -35 1 -50 3 -26 7 -28 46 -28 29 0 45 5 49 15
4 12 -3 15 -29 15 -33 0 -35 2 -35 35 0 40 -26 50 -32 13z"/>
<path d="M1217 503 c-9 -9 -9 -23 1 -22 25 4 32 -4 32 -36 0 -24 5 -35 15 -35
15 0 18 9 16 46 -2 15 5 23 23 28 44 11 28 26 -27 26 -30 0 -57 -3 -60 -7z"/>
<path d="M1400 460 c0 -38 4 -50 15 -50 11 0 15 12 15 50 0 38 -4 50 -15 50
-11 0 -15 -12 -15 -50z"/>
<path d="M1505 498 c-3 -7 -4 -28 -2 -47 3 -41 27 -55 27 -17 0 33 7 33 41 0
15 -14 32 -23 38 -20 17 11 14 96 -3 96 -8 0 -16 -11 -18 -25 l-3 -25 -29 25
c-33 28 -44 31 -51 13z"/>
<path d="M1708 499 c-11 -6 -18 -22 -18 -38 0 -32 31 -51 85 -51 32 0 35 3 35
29 0 16 -6 32 -12 35 -10 5 -10 7 0 12 6 3 12 10 12 15 0 12 -81 11 -102 -2z
m55 -27 c-13 -2 -23 -7 -23 -12 0 -5 10 -11 23 -13 16 -3 13 -5 -10 -6 -26 -1
-33 3 -33 18 0 20 34 33 55 22 6 -4 0 -7 -12 -9z"/>
</g>
</svg>
