<svg width="941" height="662" viewBox="0 0 941 662" fill="none" xmlns="http://www.w3.org/2000/svg">
    <path d="M332.357 576.64C297.556 585.922 263.914 596.364 231.433 608.547L230.272 501.805L323.077 428.71L332.357 576.64Z" fill="#3E04E2" fill-opacity="0.02"/>
    <path d="M514.483 542.994C474.461 547.635 435.599 553.436 398.477 561.557C382.236 565.038 365.996 568.519 349.755 572.58L340.475 415.367L503.462 286.581L500.562 291.222L514.483 542.994Z" fill="#3E04E2" fill-opacity="0.02"/>
    <path d="M713.431 535.448C700.67 534.868 687.91 534.868 675.149 534.868C629.327 534.868 583.505 537.189 537.683 541.249L519.702 273.815L682.69 145.608L713.431 535.448Z" fill="#3E04E2" fill-opacity="0.02"/>
    <path d="M908.323 556.334C853.221 545.312 794.638 538.93 737.795 536.03L709.954 124.145L867.721 0L908.323 556.334Z" fill="#3E04E2" fill-opacity="0.02"/>
    <path d="M1087.55 887.003C1100.31 855.096 1103.21 821.449 1093.93 786.062C1077.11 722.249 1009.25 675.26 915.282 645.673C762.155 596.943 538.264 594.043 348.596 639.292C307.414 649.154 268.552 659.596 232.011 671.199C139.786 699.624 62.0628 733.271 0 770.979C60.3227 721.089 140.946 676.42 232.011 641.613C286.533 620.728 345.116 603.905 404.278 591.722C573.646 556.915 764.475 556.335 911.221 587.662C1039.41 614.927 1133.95 665.978 1149.61 739.073C1160.05 785.482 1135.69 836.533 1087.55 887.003Z" fill="#3E04E2" fill-opacity="0.02"/>
</svg>
